<svg width="40" height="49" fill="none" xmlns="http://www.w3.org/2000/svg"><path d="M37.998 33.963l-8.947-21.619a1.204 1.204 0 00-1.484-.707l-3.447 1.129-.746-2.377c-.6-1.911-1.879-3.469-3.599-4.387a7.103 7.103 0 00-5.533-.488c-3.8 1.244-5.89 5.456-4.656 9.388l.746 2.377-3.447 1.128c-.595.195-.944.825-.805 1.456l5.03 22.897a5.035 5.035 0 002.326 3.25 4.72 4.72 0 003.88.436l17.729-5.803a4.848 4.848 0 002.906-2.655 5.156 5.156 0 00.047-4.025zM21.822 13.518l-9.192 3.008-.746-2.377c-.823-2.621.57-5.428 3.104-6.258a4.73 4.73 0 013.69.321c1.147.613 1.998 1.652 2.398 2.929l.746 2.377z" fill="#8CB3FF"/></svg>