<svg width="41" height="33" fill="none" xmlns="http://www.w3.org/2000/svg"><path d="M29.976 5.819l-26.958 5.44a2.161 2.161 0 00-1.682 2.552l3.312 16.414a2.161 2.161 0 002.54 1.7l26.958-5.44a2.161 2.161 0 001.682-2.552L32.516 7.519a2.161 2.161 0 00-2.54-1.7z" fill="#CCDEFF"/><path d="M2.018 12.137l16.564 6.735M32.087 5.393L18.582 18.872" stroke="#8CB3FF" stroke-width=".82" stroke-linecap="round" stroke-linejoin="round"/><path d="M32.994 9.886c2.463-.498 4.055-2.912 3.554-5.393C36.048 2.01 33.644.403 31.18.9c-2.463.497-4.055 2.912-3.554 5.393.5 2.481 2.904 4.09 5.368 3.593z" fill="#FF7676"/><path d="M33.903 7.868l-.65.13-.87-4.307-1.206.741-.119-.587 1.712-1.069.101-.02 1.032 5.112z" fill="#fff"/></svg>