<svg width="98" height="62" fill="none" xmlns="http://www.w3.org/2000/svg"><path d="M92.968 0H5.032C2.253 0 0 2.27 0 5.072v43.662c0 2.801 2.253 5.072 5.032 5.072h87.936c2.779 0 5.032-2.27 5.032-5.072V5.072C98 2.27 95.747 0 92.968 0z" fill="#8CB3FF"/><path d="M56.699 0H5.037a5.029 5.029 0 00-3.558 1.49A5.108 5.108 0 000 5.076V48.73a5.108 5.108 0 001.479 3.586 5.028 5.028 0 003.558 1.49h51.662V0z" fill="#CCDEFF"/><path d="M97.958 4.423a5.1 5.1 0 00-1.673-3.157A5.026 5.026 0 0092.965 0H5.036a5.026 5.026 0 00-3.32 1.266A5.1 5.1 0 00.043 4.423h97.914z" fill="#0C9"/><path d="M11.153 52.428V62l13.654-9.572H11.153z" fill="#CCDEFF"/><path d="M8.85 22.552h39m-39 6.526h39m-39 6.527h39m-39 6.526h39" stroke="#fff" stroke-width="4" stroke-miterlimit="10" stroke-linecap="round"/><path d="M44.899 17.476c2.185 0 3.957-1.786 3.957-3.988 0-2.203-1.772-3.989-3.957-3.989-2.186 0-3.958 1.786-3.958 3.989 0 2.202 1.772 3.988 3.958 3.988z" fill="#fff"/></svg>