<svg width="60" height="36" fill="none" xmlns="http://www.w3.org/2000/svg"><g clip-path="url(#clip0_41_2192)"><path d="M45.51 1.23L10.572 5.293C4.733 5.972.553 11.279 1.236 17.148l.883 7.59c.682 5.869 5.969 10.076 11.808 9.397l34.937-4.063c5.839-.68 10.019-5.987 9.336-11.856l-.882-7.59C56.635 4.757 51.348.55 45.51 1.23z" fill="#8CB3FF"/><path d="M14.55 15.406l6.474 5.152-4.253 5.4-6.474-5.151a3.455 3.455 0 01-.563-4.841 3.42 3.42 0 014.817-.56z" fill="#FF7676"/><path d="M21.9 19.458l-5.12 6.5-5.379-4.281 5.12-6.5a3.42 3.42 0 014.816-.56 3.455 3.455 0 01.563 4.841z" fill="#FF7676"/><path d="M26.886 14.27l1.872-.218.77 6.614 3.016-.35.19 1.64-4.888.57-.96-8.257zm6.068-.706l1.872-.218.96 8.257-1.871.218-.96-8.257zm8.9 7.332l-2.61-2.392.31 2.66-1.873.217-.96-8.257 1.872-.217.294 2.529 1.495-2.736 2.336-.272-2.624 4.447 4.324 3.723-2.564.298zm8.453-2.646l.19 1.641-5.376.625-.96-8.257 5.27-.613.19 1.642-3.397.395.198 1.701 2.981-.346.197 1.69-2.981.346.184 1.582 3.504-.407z" fill="#fff"/></g><defs><clipPath id="clip0_41_2192"><path fill="#fff" transform="rotate(-6.634 56.27 3.261)" d="M0 0h56.46v29.037H0z"/></clipPath></defs></svg>